<svg width="529" height="529" viewBox="0 0 529 529" fill="none" xmlns="http://www.w3.org/2000/svg">
<g id="Frame 2786">
<rect x="8.5" y="8.5" width="512" height="512" rx="256" fill="url(#paint0_radial_3835_1520)"/>
<rect x="8.5" y="8.5" width="512" height="512" rx="256" stroke="url(#paint1_linear_3835_1520)" stroke-width="17"/>
<path id="Vector 19" d="M419.881 266.805C425.38 263.346 425.38 243.741 423.18 236.822C421.42 231.287 418.047 209.145 416.581 198.766C416.581 195.306 417.681 193 423.18 193C432.859 211.451 438.212 252.967 439.678 271.418C442.978 292.176 419.881 287.563 417.681 287.563C415.481 287.563 383.585 272.572 381.385 261.039C379.626 251.814 384.318 254.12 386.885 256.427C401.183 270.265 414.381 270.265 419.881 266.805Z" fill="#F3F3F3"/>
<g id="Vector 20">
<path d="M398.885 182.246C400.508 178.665 406.241 178.665 408.535 179.827C413.121 182.618 420.676 180.99 421.818 179.921C428.027 174.108 429.844 173.72 432.138 174.108C435.577 175.27 441.769 178.99 439.017 184.571C435.577 191.546 426.404 191.546 412.645 196.196C398.885 200.847 394.794 191.272 398.885 182.246Z" fill="#F3F3F3"/>
<path d="M400.032 202.009C403.948 204.241 408.535 203.079 413.791 202.009C420.671 199.684 424.111 199.684 432.138 199.684C440.164 199.684 442.457 202.009 442.457 206.66C442.457 211.31 436.724 211.31 430.991 211.31C425.258 211.31 408.058 213.635 402.325 213.635C396.592 213.635 390.602 196.635 400.032 202.009Z" fill="#F3F3F3"/>
<path d="M380.539 226.423C384.455 228.125 387.419 226.423 392.005 225.261C395.583 224.354 400.72 224.098 417.231 219.448C437.871 213.635 451.63 217.123 458.51 217.123C465.39 217.123 465.39 224.098 460.803 227.586C457.134 230.376 448.573 229.524 444.751 228.748C436.724 228.748 427.551 229.911 421.818 231.074C416.085 232.236 404.618 238.049 395.445 240.374C386.272 242.699 381.686 238.049 377.099 234.561C372.512 231.074 372.512 222.936 380.539 226.423Z" fill="#F3F3F3"/>
</g>
<path id="Subtract" fill-rule="evenodd" clip-rule="evenodd" d="M284.398 260.694C283.441 255.882 285.594 251.471 286.79 249.866C289.661 245.054 296.759 255.08 299.949 260.694C301.145 259.09 303.776 255.401 304.733 253.476C305.93 251.069 315.499 242.648 322.677 247.46C328.419 251.31 330.652 269.116 331.05 277.538C332.331 275.605 338.756 272.293 344.632 269.264C349.732 266.635 354.419 264.218 354.975 263.101C355.932 261.176 355.373 259.09 354.975 258.288C350.19 249.866 357.367 245.054 364.544 249.866C370.286 253.716 370.127 260.293 369.329 263.101C373.157 264.063 377.304 267.512 378.899 269.116C386.076 277.538 387.273 300.397 384.88 320.85C382.544 340.818 372.227 347.025 366.173 350.667L365.741 350.927C359.76 354.537 350.19 349.724 346.601 342.506C343.73 336.731 343.013 338.495 343.013 340.099C342.614 346.115 339.424 357.424 329.854 354.537C317.892 350.927 323.873 328.068 327.462 328.068C329.215 328.068 329.541 329.217 329.834 330.252C330.14 331.335 330.412 332.293 332.247 331.678C334.393 330.958 338.68 319.045 342.547 308.301C345.144 301.083 347.552 294.392 348.994 291.975C352.582 285.96 348.994 281.147 345.405 281.147C341.816 281.147 334.639 285.96 331.05 288.366C328.179 290.291 331.449 295.584 333.443 297.991C340.62 296.788 340.62 305.209 338.228 310.022C336.097 314.308 310.246 325.273 298.7 330.171C297.282 330.773 296.08 331.283 295.164 331.678C286.79 335.287 271.239 338.896 266.454 332.881C262.626 328.068 267.252 323.657 270.043 322.053C287.269 316.278 290.778 310.824 290.379 308.819C290.379 282.43 287.221 271.127 285.395 264.589C284.973 263.079 284.622 261.823 284.398 260.694ZM348.994 323.256C348.037 315.556 358.962 291.975 364.544 281.147C369.876 283.292 370.455 288.305 371.365 296.186C371.476 297.146 371.592 298.149 371.722 299.194C372.679 306.894 364.146 323.256 359.76 330.475C356.57 331.277 349.951 330.956 348.994 323.256ZM305.93 266.71C305.93 265.507 313.107 259.492 314.303 259.492C315.499 259.492 320.284 265.507 317.892 267.913C315.499 270.32 303.537 270.32 305.93 266.71ZM317.892 279.945C315.021 279.945 307.923 278.34 304.733 277.538C302.341 279.945 303.537 283.554 304.733 285.96C305.93 288.366 315.499 288.366 317.892 288.366C320.284 288.366 321.481 279.945 317.892 279.945ZM315.499 294.382C314.542 296.307 309.518 297.59 307.126 297.991C304.733 300.398 304.733 304.007 309.518 306.413C313.829 308.581 316.198 304.889 318.375 301.497C318.614 301.125 318.852 300.754 319.088 300.398C321.48 296.788 316.696 291.976 315.499 294.382Z" fill="#F3F3F3"/>
<path id="Subtract_2" fill-rule="evenodd" clip-rule="evenodd" d="M215.933 213.133C216.795 212.178 219.164 211.94 220.241 211.94C222.754 211.94 228.642 211.462 232.088 209.552C235.535 207.642 238.55 211.144 239.627 213.133C240.704 214.725 242.212 220.058 239.627 228.653C238.338 232.941 238.55 233.428 241.781 235.815C243.935 237.009 246.089 238.203 246.089 239.397C246.089 240.59 242.858 245.365 237.473 248.947C235.319 250.14 235.381 250.872 237.473 252.528C245.012 258.497 268.706 271.628 269.783 272.822C270.86 274.016 267.629 276.403 266.552 276.403C266.153 276.403 265.605 276.485 264.916 276.589C261.89 277.042 256.138 277.905 248.243 274.016C240.489 270.196 232.088 258.099 228.857 252.528C228.498 252.13 227.78 250.14 226.703 253.722C226.512 254.145 226.288 254.981 225.993 256.076C224.626 261.161 218.798 272.204 213.779 272.822C206.025 273.777 204.086 271.628 204.086 270.434C203.727 270.036 204.302 268.524 209.471 265.659C215.933 262.078 218.087 253.722 218.087 251.334C218.087 250.224 220.008 244.603 220.241 244.172C221.318 242.182 222.395 238.203 218.087 238.203C213.779 238.203 211.266 236.611 210.548 235.815C209.83 234.224 212.182 231.88 213.779 232.234C218.087 233.189 223.472 233.428 225.626 233.428C227.062 233.03 228.857 229.846 228.857 228.653C227.78 227.459 220.539 228.036 216.231 226.842C213.915 226.2 213 225.648 213 224.455C213 223.474 213.291 221.977 216.19 221.941C216.261 221.94 216.334 221.948 216.403 221.963C223.446 223.455 226.917 223.021 229.235 222.287V222.287C231.571 220.622 228.604 217.674 225.768 218.104C222.323 218.625 218.735 219.005 216.769 218.541C216.252 218.419 215.86 218.018 215.727 217.504C215.34 216.017 215.362 213.767 215.933 213.133ZM227.78 239.395C228.857 238.202 232.304 237.049 233.165 237.009C234.241 236.959 235.035 237.065 236.301 238.003C237.818 239.126 233.409 243.359 232.088 244.17C231.268 244.673 229.962 245.394 228.857 244.169C227.78 242.975 226.703 240.59 227.78 239.395Z" fill="#03CB8E"/>
<path id="Vector 24" d="M215.763 247.534C214.822 246.105 210.666 242.771 208.705 241.282C206.353 240.389 205.57 241.877 205.176 242.175C204 243.96 204 247.534 204 249.32C204 251.107 205.176 252 206.353 252H212.234C213.411 252 216.94 249.32 215.763 247.534Z" fill="#03CB8E"/>
<path id="Vector 25" d="M87.8475 231.134C86.9207 230.219 85.9166 226.179 85.5304 224.273C85.0939 222.118 84.1402 219.47 87.8475 218.555C92.4816 217.411 97.1156 220.842 104.067 225.416C113.335 227.703 123.762 219.699 127.237 217.411C130.713 215.124 149.249 207.12 161.993 209.407C174.736 211.694 175.895 224.273 174.736 236.852C173.81 246.915 174.35 258.579 174.736 263.153C177.517 292.428 192.114 311.182 196.748 316.9C210.65 331.537 209.492 326.048 209.492 323.761C208.333 315.756 206.016 300.89 206.016 298.603C206.016 296.316 208.333 290.598 214.126 299.747C219.919 308.895 231.504 335.197 232.662 337.484C233.821 339.771 234.979 343.201 232.662 345.488C230.809 347.318 225.711 348.538 223.394 348.919C180.529 351.206 165.468 304.321 160.834 291.742C156.2 279.163 158.517 254.005 157.359 249.431C157.359 248.287 156.2 241.426 156.2 234.565C156.2 229.076 152.725 227.527 151.566 227.703C146.546 228.466 132.536 232.802 127.237 235.708C118.896 240.282 116.811 240.282 114.494 240.282H114.493C112.176 240.282 105.225 240.282 105.225 242.569C105.225 245.462 104.067 255.148 102.908 259.723C106.77 260.485 115.652 262.696 120.286 265.44C124.92 268.185 127.623 265.822 128.396 264.297C129.554 260.866 131.408 253.319 129.554 250.574C127.237 247.144 128.396 244.857 131.871 246C141.139 249.431 144.615 255.148 145.773 257.436C146.932 259.723 146.932 263.153 143.456 270.015C139.981 276.876 141.139 275.732 141.139 276.876C150.407 284.881 152.725 290.598 155.042 294.029C157.359 297.46 153.883 305.464 148.09 304.321C138.822 303.177 134.188 297.46 133.03 296.316C132.103 295.401 131.099 295.173 130.713 295.173C127.237 299.747 119.591 309.581 116.81 312.326C114.03 315.07 111.79 314.232 111.018 313.469C109.473 311.182 106.152 305.922 105.225 303.177C104.298 300.433 105.611 297.46 106.384 296.316C108.701 293.648 113.798 287.854 115.652 286.024C117.506 284.194 117.197 282.975 116.81 282.594C114.03 278.934 105.611 271.158 101.75 267.727L100.591 270.015C94.7986 289.455 94.7986 315.756 94.7986 323.761C94.7986 331.766 91.323 331.766 83.2134 331.766C75.1038 331.766 71.6282 327.192 68.1527 319.187C65.3722 312.783 65.4495 303.559 65.8356 299.747C62.3601 289.455 64.6771 287.168 65.8356 287.168C66.7624 287.168 69.3112 291.742 70.4697 294.029L72.7867 290.598C76.2623 278.782 83.6768 253.547 85.5304 247.144C87.8475 239.139 89.006 234.564 87.8475 231.134Z" fill="#F3F3F3"/>
<path id="Subtract_3" fill-rule="evenodd" clip-rule="evenodd" d="M387.43 351.735C395.322 351.781 409.757 352.301 412.477 354.114C416.05 356.496 435.106 355.305 441.061 348.159C447.016 341.012 452.971 331.484 451.78 314.81C450.192 317.192 446.063 321.241 442.252 318.383C439.477 316.301 441.552 313.816 443.768 311.161C445.356 309.259 447.016 307.27 447.016 305.282C447.016 300.518 443.443 295.754 439.87 294.562C438.084 293.967 438.084 295.456 438.084 297.54C438.084 299.624 438.084 302.304 436.297 304.091C434.876 305.511 431.196 307.685 427.128 310.088C420.965 313.729 413.912 317.895 412.477 320.765C411.614 322.491 411.532 325.42 411.44 328.753C411.277 334.622 411.079 341.745 406.522 345.777C398.655 345.027 384.214 345.056 385.811 350.664C386.007 351.354 386.712 351.731 387.43 351.735ZM438.682 307.664C433.918 311.237 423.437 319.336 419.626 323.147C415.815 326.958 416.45 334.263 417.244 337.439C417.641 338.63 417.244 341.489 412.48 343.394C406.525 345.776 419.626 346.967 420.817 344.585C421.412 343.394 421.412 341.012 421.412 338.928C421.412 336.844 421.412 335.057 422.008 335.057C423.199 335.057 425.581 337.439 426.772 342.203C427.963 346.967 432.727 346.967 433.918 345.776C434.105 345.589 434.528 345.225 435.108 344.726C438.215 342.052 445.828 335.499 445.828 331.484C445.828 328.105 442.833 327.123 440.666 326.412C439.777 326.121 439.028 325.875 438.682 325.529C438.274 325.121 437.588 324.993 436.86 324.857C435.464 324.595 433.918 324.306 433.918 321.956C433.918 318.383 437.491 312.428 438.682 311.237C439.873 310.046 439.873 307.664 438.682 307.664Z" fill="#00AF7A"/>
<path id="Vector 28" d="M435.868 330.347C434.723 325.44 427.059 320.533 425.242 320.04C425.083 319.997 424.923 320.039 424.782 320.125C422.741 321.378 425.078 322.67 427.415 325.174C429.831 327.76 429.831 334.227 427.415 336.814C425.483 338.884 427.415 341.988 429.831 340.695C432.246 338.97 436.834 334.486 435.868 330.347Z" fill="#00AF7A"/>
</g>
<defs>
<radialGradient id="paint0_radial_3835_1520" cx="0" cy="0" r="1" gradientUnits="userSpaceOnUse" gradientTransform="translate(264.5 264.5) rotate(90) scale(264.5)">
<stop stop-color="#434343"/>
<stop offset="0.865587" stop-color="#292929"/>
</radialGradient>
<linearGradient id="paint1_linear_3835_1520" x1="363.5" y1="25.5" x2="93.5" y2="467" gradientUnits="userSpaceOnUse">
<stop stop-color="#818181"/>
<stop offset="0.52" stop-color="#E7E7E7" stop-opacity="0.7"/>
<stop offset="0.951112" stop-color="#818181"/>
</linearGradient>
</defs>
</svg>
